<svg xmlns="http://www.w3.org/2000/svg" viewBox="0 0 287.07 61.28"><defs><style>.cls-1{fill:#b0a31c;}</style></defs><title>アセット 2</title><g id="レイヤー_2" data-name="レイヤー 2"><g id="レイヤー_1-2" data-name="レイヤー 1"><path class="cls-1" d="M51.6,55.91c0,1.81-1,2.76-3.1,2.76h-.38c-.29,0-.35-.09-.35-.38v-.43c0-.31,0-.4.24-.4a.58.58,0,0,1,.18,0l.51,0a1.46,1.46,0,0,0,1.67-1.64V51.71c0-.45,0-1.05,0-1.55s0-.82,0-.9c0-.3.09-.35.42-.35h.48c.34,0,.42.05.42.35,0,.08,0,.46,0,.94s0,1.08,0,1.51Z"/><path class="cls-1" d="M55.73,58.62c-.34,0-.42-.06-.42-.35,0-.1,0-.56,0-1s0-1,0-1.42v-4.1c0-.42,0-1,0-1.46s0-.89,0-1c0-.3.08-.35.42-.35h.47c.34,0,.42.05.42.35,0,.1,0,.52,0,1s0,1,0,1.43v4.1c0,.41,0,1,0,1.46s0,.9,0,1c0,.29-.08.35-.42.35Z"/><path class="cls-1" d="M61.64,55.6c0,.78,0,2.06,0,2.58,0,.37-.08.44-.44.44h-.45c-.32,0-.4-.06-.4-.31s.07-1.8.08-2.73l.07-4c0-.74,0-1.74,0-2.27,0-.3.09-.35.42-.35h.19a.64.64,0,0,1,.68.35c.35.49.72,1,1.08,1.44l2.06,2.73c.11.14.18.21.25.21s.16-.07.26-.21l2-2.7c.36-.49.72-1,1.07-1.47a.67.67,0,0,1,.69-.35h.2c.36,0,.43.07.43.43s0,1.49,0,2.19l.06,4c0,.95.08,2.47.08,2.75s-.08.31-.4.31h-.44c-.36,0-.43-.07-.43-.44s0-1.75,0-2.56l-.07-4c0-.14,0-.23-.09-.23s-.11.06-.18.14l-3,3.84c-.09.11-.14.16-.28.16s-.2-.06-.29-.16L62,51.5c-.07-.08-.13-.13-.17-.13s-.08.07-.08.21Z"/><path class="cls-1" d="M82.78,53.62a4.81,4.81,0,0,1-4.9,5.08,4.57,4.57,0,0,1-4.64-4.85,4.71,4.71,0,0,1,4.86-5A4.55,4.55,0,0,1,82.78,53.62Zm-8.26.23a3.37,3.37,0,0,0,3.4,3.67,3.56,3.56,0,0,0,3.57-3.85A3.36,3.36,0,0,0,78.07,50,3.53,3.53,0,0,0,74.52,53.85Z"/><path class="cls-1" d="M89.8,55.81c0,.51,0,1.25,0,1.8,0,.33,0,.59,0,.66,0,.29-.09.35-.42.35H89c-.33,0-.42-.06-.42-.35,0-.07,0-.35,0-.72,0-.53,0-1.25,0-1.74V50.48c0-.35-.07-.42-.42-.42h-.51l-1.93,0c-.25,0-.31-.08-.31-.4V49.3c0-.34.06-.42.35-.42s1.3,0,2,0h2.94l2,0c.29,0,.35.08.35.42v.38c0,.32-.06.4-.31.4l-1.93,0h-.53c-.36,0-.43.07-.43.42Z"/><path class="cls-1" d="M105.19,53.62a4.8,4.8,0,0,1-4.9,5.08,4.57,4.57,0,0,1-4.64-4.85,4.72,4.72,0,0,1,4.87-5A4.54,4.54,0,0,1,105.19,53.62Zm-8.26.23a3.37,3.37,0,0,0,3.4,3.67,3.56,3.56,0,0,0,3.57-3.85A3.36,3.36,0,0,0,100.49,50,3.53,3.53,0,0,0,96.93,53.85Z"/><path class="cls-1" d="M115.14,58.62l-1.8,0c-.31,0-.41-.09-.41-.4,0-.1,0-1.57,0-2.38V51.67c0-.83,0-2.29,0-2.38,0-.31.1-.41.41-.41.09,0,1.14,0,1.8,0h1.39c2.89,0,4.45,1.53,4.45,4.54s-1.55,5.17-4.83,5.17Zm-1-1.53c0,.35.07.42.42.42h1.5c2.54,0,3.61-1.72,3.61-4,0-2-1-3.44-3.3-3.44h-1.81c-.35,0-.42.07-.42.42Z"/><path class="cls-1" d="M127.42,57.5c.67,0,1.75,0,2,0s.31.08.31.4v.35c0,.34,0,.42-.35.42l-2,0h-.89l-1.76,0c-.29,0-.46,0-.46-.4,0-.1,0-1.57,0-2.38V51.67c0-.83,0-2.29,0-2.38,0-.31.1-.41.41-.41.1,0,1.15,0,1.81,0h.6c.7,0,1.78,0,2,0s.35.08.35.42v.38c0,.34-.06.4-.35.4s-1.29,0-2,0H126c-.35,0-.42.07-.42.42v2c0,.35.07.42.42.42h.87c.66,0,1.78,0,2,0s.35.08.35.42v.34c0,.32-.06.4-.31.4s-1.19,0-2.87,0c-.35,0-.42.07-.42.42v2.66c0,.36.07.43.42.43Z"/><path class="cls-1" d="M143.42,56c0,1.71-1.31,2.71-3.29,2.71a5.81,5.81,0,0,1-2.76-.7c-.19-.11-.28-.19-.28-.32a.72.72,0,0,1,.09-.28l.18-.39c.08-.18.15-.28.25-.28a.55.55,0,0,1,.28.14,4.43,4.43,0,0,0,2.36.7c1.14,0,1.91-.58,1.91-1.49s-.91-1.38-2.08-1.89c-1.39-.58-2.78-1.23-2.78-2.84s1.31-2.55,3.3-2.55a5.67,5.67,0,0,1,2.19.46c.21.1.3.19.3.31a.8.8,0,0,1-.07.28l-.18.45c-.09.21-.14.29-.24.29a.68.68,0,0,1-.28-.11,3.79,3.79,0,0,0-1.89-.5c-1.19,0-1.84.56-1.84,1.33s.72,1.22,2,1.79C142.08,53.74,143.42,54.4,143.42,56Z"/><path class="cls-1" d="M149.82,57.5c.67,0,1.75,0,2,0s.31.08.31.4v.35c0,.34,0,.42-.35.42l-2,0h-.9l-1.75,0c-.29,0-.46,0-.46-.4,0-.1,0-1.57,0-2.38V51.67c0-.83,0-2.29,0-2.38,0-.31.1-.41.41-.41.1,0,1.15,0,1.8,0h.61c.7,0,1.78,0,2,0s.35.08.35.42v.38c0,.34-.06.4-.35.4s-1.29,0-2,0h-1.15c-.35,0-.42.07-.42.42v2c0,.35.07.42.42.42h.87c.66,0,1.78,0,2,0s.35.08.35.42v.34c0,.32-.06.4-.31.4s-1.19,0-2.87,0c-.35,0-.42.07-.42.42v2.66c0,.36.07.43.42.43Z"/><path class="cls-1" d="M156.82,56.54c-.24.55-.42,1-.66,1.7-.12.35-.19.38-.56.38h-.55c-.22,0-.32,0-.32-.14a.72.72,0,0,1,.07-.26c.41-.86.72-1.62,1-2.35l2-4.71c.24-.57.51-1.19.76-1.85.14-.35.21-.4.59-.4h.31c.38,0,.45.05.59.4.23.66.5,1.27.74,1.84l2,4.71c.33.77.64,1.5,1.05,2.36a.77.77,0,0,1,.07.26c0,.11-.1.14-.32.14H163c-.38,0-.45-.06-.58-.41-.24-.69-.39-1.08-.63-1.65l-.1-.24a.44.44,0,0,0-.49-.3h-3.75a.45.45,0,0,0-.49.3Zm.8-2a.69.69,0,0,0-.06.24c0,.13.1.15.32.15h2.81c.22,0,.32,0,.32-.15a.69.69,0,0,0-.06-.24l-1.51-3.65c-.06-.16-.1-.23-.15-.23s-.1.07-.16.23Z"/><path class="cls-1" d="M168.11,55.81c0,.44,0,1,0,1.49s0,.87,0,1c0,.29-.09.35-.42.35h-.47c-.33,0-.42-.06-.42-.35,0-.09,0-.45,0-.9s0-1.12,0-1.56V51.68c0-.82,0-2.3,0-2.39,0-.31.1-.41.4-.41.1,0,1.15,0,1.81,0h1c1.77,0,3,.67,3,2.62a3,3,0,0,1-1.83,2.84c-.18.09-.26.14-.26.23s0,.14.14.26l.46.59c.7.9,1.33,1.67,2.26,2.79a.39.39,0,0,1,.11.24c0,.09-.11.14-.32.14h-.76a.63.63,0,0,1-.67-.37c-.59-.85-1.15-1.6-1.74-2.32l-.64-.84a.67.67,0,0,0-.68-.34h-.58c-.36,0-.42.07-.42.42Zm0-2.56c0,.35.06.42.42.42h1c1.14,0,2.25-.46,2.25-2S170.86,50,169.94,50h-1.41c-.36,0-.42.06-.42.42Z"/><path class="cls-1" d="M183.69,58c0,.12-.08.2-.31.29a6,6,0,0,1-2.23.41A4.4,4.4,0,0,1,176.53,54a4.83,4.83,0,0,1,5.18-5.14,5.34,5.34,0,0,1,1.84.3c.22.08.31.15.31.29a.84.84,0,0,1-.06.26l-.17.46c-.08.22-.12.31-.25.31a.84.84,0,0,1-.28-.09,4.09,4.09,0,0,0-1.5-.29,3.62,3.62,0,0,0-3.78,3.88,3.32,3.32,0,0,0,3.47,3.6,4,4,0,0,0,1.66-.35.7.7,0,0,1,.29-.1c.11,0,.17.1.25.31l.13.32A.94.94,0,0,1,183.69,58Z"/><path class="cls-1" d="M188.29,55.81c0,.35,0,.8,0,1.22s0,1.12,0,1.24c0,.29-.08.35-.42.35h-.47c-.34,0-.42-.06-.42-.35,0-.12,0-.66,0-1.22s0-.89,0-1.24v-4.1c0-.38,0-.88,0-1.33s0-1,0-1.12c0-.3.08-.35.42-.35h.47c.34,0,.42.05.42.35,0,.1,0,.6,0,1.11s0,1,0,1.34v.76c0,.35.07.42.42.42h4.44c.35,0,.42-.07.42-.42v-.76c0-.35,0-.8,0-1.22s0-1.12,0-1.23c0-.3.09-.35.42-.35h.48c.33,0,.42.05.42.35,0,.1,0,.64,0,1.2s0,.89,0,1.25v4.1c0,.35,0,.83,0,1.26s0,1.1,0,1.2c0,.29-.09.35-.42.35H194c-.33,0-.42-.06-.42-.35,0-.1,0-.66,0-1.21s0-.9,0-1.25V54.46c0-.35-.07-.42-.42-.42h-4.44c-.35,0-.42.07-.42.42Z"/><path class="cls-1" d="M205.4,61.18a.76.76,0,0,1-.29.1c-.12,0-.2-.09-.33-.27a10.95,10.95,0,0,1,0-12.21c.13-.19.21-.27.33-.27a.76.76,0,0,1,.29.1l.2.1c.19.08.28.15.28.26a.6.6,0,0,1-.13.28,10,10,0,0,0,0,11.27.63.63,0,0,1,.13.27c0,.12-.09.19-.28.27Z"/><path class="cls-1" d="M213,55.81c0,.51,0,1.25,0,1.8,0,.33,0,.59,0,.66,0,.29-.08.35-.42.35h-.46c-.34,0-.42-.06-.42-.35,0-.07,0-.35,0-.72,0-.53,0-1.25,0-1.74V50.48c0-.35-.07-.42-.42-.42h-.5l-1.93,0c-.26,0-.31-.08-.31-.4V49.3c0-.34,0-.42.35-.42s1.3,0,2,0h2.94l2,0c.29,0,.34.08.34.42v.38c0,.32-.05.4-.3.4l-1.94,0h-.53c-.35,0-.42.07-.42.42Z"/><path class="cls-1" d="M221.57,58.62l-1.81,0c-.3,0-.4-.09-.4-.4,0-.1,0-1.57,0-2.38V51.67c0-.83,0-2.29,0-2.38,0-.31.1-.41.4-.41.1,0,1.15,0,1.81,0h.87c1.93,0,3.08.52,3.08,2.16a2.36,2.36,0,0,1-1,2.11c-.11.07-.16.13-.16.17s.07.08.21.14a2.11,2.11,0,0,1,1.4,2.18c0,2-1.39,2.95-3.48,2.95Zm-1-6.07c0,.35.07.42.42.42h1.28c1.09,0,2-.39,2-1.69,0-1.1-.94-1.29-1.82-1.29H221c-.35,0-.42.07-.42.42Zm0,4.59c0,.36.07.42.42.42h1.53c1.22,0,2.2-.57,2.2-1.9s-.84-1.62-2-1.62H221c-.35,0-.42.07-.42.42Z"/><path class="cls-1" d="M231.55,58.62l-1.8,0c-.31,0-.41-.09-.41-.4,0-.1,0-1.57,0-2.38V51.67c0-.83,0-2.29,0-2.38,0-.31.1-.41.41-.41.09,0,1.14,0,1.8,0h1.39c2.88,0,4.45,1.53,4.45,4.54s-1.55,5.17-4.83,5.17Zm-1-1.53c0,.35.07.42.42.42h1.5c2.53,0,3.61-1.72,3.61-4,0-2-1-3.44-3.3-3.44H231c-.35,0-.42.07-.42.42Z"/><path class="cls-1" d="M240.36,60.81a.58.58,0,0,1,.12-.27,10,10,0,0,0,0-11.27.56.56,0,0,1-.12-.28c0-.11.08-.18.28-.26l.19-.1a.75.75,0,0,1,.3-.1c.11,0,.19.08.32.27a10.95,10.95,0,0,1,0,12.21c-.13.18-.21.27-.32.27a.75.75,0,0,1-.3-.1l-.19-.1C240.44,61,240.36,60.93,240.36,60.81Z"/><path class="cls-1" d="M3.53,14.07a1,1,0,0,0-1-1c-.43,0-1,.07-1.44.07-.68,0-.76-.43-.76-1.54V9.43C.32,8.31.4,8,1.12,8c.5,0,1,0,1.44,0a.87.87,0,0,0,1-1V4.39c0-1.76-.15-2.77-.15-3.2S3.67.65,4.1.65s4.54.21,5,.25c.33,0,.79.11.79.5s-.28.47-.72.72-.43.47-.43.94v4A1,1,0,0,0,9.72,8h.86c.69,0,.76.43.76,1.44v2.05c0,1.33-.07,1.69-.79,1.69-.29,0-.54,0-.8,0a1,1,0,0,0-1,.93v6.27a.85.85,0,0,0,.76.9,3.2,3.2,0,0,0,1-.26,3.12,3.12,0,0,1,.5-.14c.65,0,.72.79.72,2.2v1.18c0,.76-.14,1.12-.76,1.41C9.72,26.2,4.72,28,3.2,28.51c-.86.29-.79.32-1.08,1.11-.07.15-.14.29-.36.29s-.61-.86-.93-2.12c-.11-.47-.25-1-.43-1.55a7.77,7.77,0,0,1-.4-1.8c0-.61.58-.65,1-.72,2.06-.4,2.42-.5,2.49-2ZM24,18.57c0,1.66.11,3.35.11,5,0,.87-.36.94-1.48.94H20.7c-1.15,0-1.59-.07-1.59-.9,0-1.69.11-3.38.11-5.08V16.31a.53.53,0,0,0-.5-.58c-.72,0-1.19.86-1.19,1.76v7.6c0,1.37,0,1.76,1.58,1.76h6.05c1.58,0,1.91-.47,2.27-2.37.14-.61.14-.87.79-.87a9.64,9.64,0,0,1,2.84.58c.9.29,1.52.61,1.52,1.58a9.82,9.82,0,0,1-1.66,4.61c-.9,1.22-2.52,1.48-4,1.48H17.57c-3,0-5.08-.33-5.08-3.86,0-.86,0-1.72,0-2.59v-6c0-.65-.33-.69-.94-.69S9.43,15,9.43,14.69c0-.65.83-.9,1.8-1.3a1.74,1.74,0,0,0,1.3-1.76V8.13a21.21,21.21,0,0,0-.11-2.73,1.13,1.13,0,0,1,0-.32c0-.47.33-.51.69-.51,1.11,0,2.95.11,4.1.18.5,0,1.19,0,1.19.5,0,.29-.29.4-.51.54a1,1,0,0,0-.32.87V9.43c0,.4,0,1,.54,1s1.15-.82,1.15-1.72V3.63c0-1.76-.11-2.84-.11-3.2s.33-.43.65-.43C21,0,22.39.07,23.58.11c.54,0,1.11.07,1.11.54,0,.21-.14.29-.32.47A1.24,1.24,0,0,0,24,2c0,.47,0,2.45,0,3.06V6.66c0,.47.07,1,.57,1a16.7,16.7,0,0,0,2.34-1,5,5,0,0,1,1.95-.58A2.79,2.79,0,0,1,31.1,7.31a4.07,4.07,0,0,1,.25,1.8v.75c0,1.8,0,8.68-.18,10.08-.29,2.41-2.34,2.95-4.43,2.95-.57,0-1.29,0-1.54-.65a11,11,0,0,1-.54-3.45c0-.33,0-.9.43-.9h.47c.5,0,.72,0,.72-4.14,0-.58,0-1-.51-1A1.84,1.84,0,0,0,24,14.65Z"/><path class="cls-1" d="M62.21,15.33a1,1,0,0,0-1,1v9c0,1,0,1.3,1.11,1.3h2c1.15,0,1.55-.5,1.95-3.71.1-.79.1-1.26.93-1.26a7.3,7.3,0,0,1,3.1.9,1.46,1.46,0,0,1,.9,1.37,17,17,0,0,1-1.69,6c-.94,1.62-2.38,1.69-4.07,1.69h-5c-3.46,0-4.4-1-4.4-4.42V16.34a1,1,0,0,0-1-1H52.09c-.14,0-.29.08-.29.18s.51.33.65.36c.83.22,1.55.44,1.55.9,0,.29-.36.4-.58.51a1.14,1.14,0,0,0-.75.83,19.18,19.18,0,0,1-6,11.26c-.72.65-3.78,3-4.61,3-1.12,0-3.46-2.6-3.46-3.42,0-.4.54-.65.83-.83,4.28-2.45,7.16-5.26,8-10.3a15.45,15.45,0,0,0,.18-1.8c0-.5-.18-.72-.68-.72H44.53c-1.55,0-3.13.11-4.68.11-.86,0-1-.43-1-1.4V12c0-1.23.07-1.66.94-1.66,1.58,0,3.16.07,4.71.07H65.3c1.58,0,3.17-.07,4.75-.07.87,0,.94.47.94,1.62v1.91c0,1.19-.07,1.58-1,1.58-1.59,0-3.14-.11-4.72-.11Zm-.4-14c1.4,0,2.77-.1,4.17-.1,1,0,1.16.47,1.16,1.8v1.9c0,1.16-.15,1.55-1.23,1.55-1.37,0-2.73-.11-4.1-.11H48c-1.37,0-2.77.11-4.14.11-1.08,0-1.19-.39-1.19-1.73V2.92c0-1.26.11-1.73,1.15-1.73,1.37,0,2.77.1,4.18.1Z"/><path class="cls-1" d="M79.06,7c0-1.11.39-1.15,4.35-1.36.72,0,1.55-.08,2.56-.15,4.53-.29,15-1.47,19.36-2.3a1.23,1.23,0,0,1,.36,0c.65,0,.76.5.9,1.19a24.67,24.67,0,0,1,.47,4c0,.69-.4.69-1.94.73a14.71,14.71,0,0,0-5.15.64,11.19,11.19,0,0,0-7.45,10.51c0,3.42,1.8,4.36,5,4.36.9,0,2.08-.11,2.59-.11.68,0,.93.11.93.79a16.22,16.22,0,0,1-.61,4.21c-.29.72-.79.83-1.55.83-6.66,0-12.24-1.73-12.24-9.5a15.08,15.08,0,0,1,3.1-9.18,1,1,0,0,0,.22-.54c0-.32-.26-.54-.65-.54a14.13,14.13,0,0,0-2,.32c-1.9.36-4.39.9-6.26,1.44a2.17,2.17,0,0,1-.5.08c-.76,0-1-1.62-1.19-2.74A19.38,19.38,0,0,1,79.06,7ZM103,13c.46.54,2.44,3,2.44,3.53,0,.72-1.94,1.83-2.3,1.83-.18,0-.25-.11-.72-.83-.68-1-1.4-2-2.19-3a.61.61,0,0,1-.19-.4c0-.5,2-1.58,2.42-1.58C102.6,12.53,102.81,12.78,103,13Zm7.16,1.33c0,.72-1.91,1.87-2.3,1.87s-.44-.32-.54-.5A27.46,27.46,0,0,0,105,12.53c-.11-.15-.29-.36-.29-.54,0-.47,2-1.59,2.42-1.59S110.12,13.82,110.12,14.29Z"/><path class="cls-1" d="M122.4,9.43c.36,0,1.19,0,1.19-.83V7.05c0-1.54-.07-3.09-.07-4.64,0-.25,0-.36.32-.36.72,0,3,.15,3.89.18,1.15,0,2,.11,2,.51a.88.88,0,0,1-.21.39,1.59,1.59,0,0,0-.36,1.12V8.53a.81.81,0,0,0,.82.9h4.47c.61,0,.83-.5.83-1,0-1-.08-5-.15-5.8,0-.14,0-.29,0-.43a.49.49,0,0,1,.54-.47c.5,0,2.62.11,3.27.15,1.22,0,2.52.07,2.52.46,0,.62-.57.08-.57,1.77v2c0,.65,0,1.3,0,2,0,1,.21,1.37,1.15,1.37h.43c.9,0,3.82-.11,4.14-.11.79,0,1,.33,1,2v1.58c0,1.19-.07,1.73-1.18,1.73-1.3,0-2.63-.07-3.93-.07H142c-1,0-1.26.18-1.26,1.26,0,6.12-1.19,10.18-6.48,13.78-.68.47-3.24,2-4,2-.47,0-1.55-1-2.2-1.8-.58-.57-1.44-1.44-1.44-1.94s.65-.68,1.69-1.08c5.55-2.3,6.91-5.33,6.91-11.12,0-.58-.18-1.08-.82-1.08H130a.83.83,0,0,0-.82.83v1.9c0,1.48,0,3.49,0,4,0,1.26,0,1.52-1.33,1.52h-2.52c-1.62,0-1.83-.11-1.83-.91,0-1.51.07-3,.07-4.46V15.48a.92.92,0,0,0-.94-.9h-.72c-1.4,0-2.81.11-3.74.11s-1.12-.94-1.12-2.27V11.09c0-1.48.15-1.77,1-1.77s2.52.11,3.89.11Z"/><path class="cls-1" d="M179.28,12.81c2.12,0,4.42-.14,4.75-.14.93,0,1.08.4,1.08,1.44v1.73c0,2,0,2.59-1.19,2.59-1.4,0-3.06-.11-4.64-.11H162.72c-1.59,0-3.28.11-4.61.11s-1.22-.68-1.22-2.59V14.18c0-1.08.11-1.51,1-1.51.51,0,2.52.14,4.79.14Z"/><path class="cls-1" d="M207.32,12.71c.94,0,1-.8,1-1.91v-.29c0-.36-.07-1-.83-1a8,8,0,0,0-.9.07c-1.4.14-4.24.32-5.65.32-1.08,0-1.26-.18-1.58-1a13.79,13.79,0,0,1-.9-3.74c0-.47.25-.58.72-.58s2.09.11,3.31.11c3.85,0,11.59-.76,14.79-2.77a.62.62,0,0,1,.33-.11c.36,0,1.47,1.15,1.83,1.51s2.16,2.23,2.41,2.52a.79.79,0,0,1,.15.4c0,.25-.25.36-.47.36h-.32a.83.83,0,0,0-.29,0,4,4,0,0,0-1.19.29c-1.33.43-3.42,1.15-4.75,1.44-.87.18-1.12.54-1.12,1.4v2a.93.93,0,0,0,.94,1h4.1c1.88,0,3.78-.08,5.08-.08.86,0,1,.22,1,1.8v1.8c0,1.52-.21,1.84-1.19,1.84-1.65,0-3.27-.07-4.93-.07h-4.39c-1.19,0-1.44.11-1.8,1.26A19,19,0,0,1,206,29.05c-.72.57-3.13,2.41-4,2.41s-3.71-2.95-3.71-3.64c0-.32.39-.5.83-.72a15.34,15.34,0,0,0,7.16-6.94,6.44,6.44,0,0,0,.57-1.48.67.67,0,0,0-.68-.68H200.3c-1.83,0-3.81.11-4.68.11s-1.11-.58-1.11-1.66v-2c0-1.55.11-1.87,1-1.87.61,0,3.13.11,4.82.11Z"/><path class="cls-1" d="M239.34,16a12.9,12.9,0,0,1,3.07-8.36c.17-.19.44-.5.69-.5a2.46,2.46,0,0,1,1.44,1.17.52.52,0,0,1-.18.34,10.86,10.86,0,0,0-.16,14.51c.12.13.32.33.32.51,0,.36-1.06,1.19-1.4,1.19s-.47-.24-.63-.44A12.85,12.85,0,0,1,239.34,16Z"/><path class="cls-1" d="M250.22,21.15c0,.83,0,1.64,0,2.46,0,.4-.18.53-1,.53h-.63c-.77,0-.91-.17-.91-.58,0-.81,0-1.6,0-2.41v-4c0-.2,0-.33-.16-.33s-.13.07-.25.07c-.42,0-1.46-1.6-1.46-2.07a1.31,1.31,0,0,1,.34-.66,18.12,18.12,0,0,0,2.68-5.85c.11-.45.18-.56.44-.56s1.72.54,2,.63.58.21.58.43-.18.23-.31.27-.27.23-.34.45a30.11,30.11,0,0,1-1.12,2.9,1.17,1.17,0,0,0-.14.41c0,.18.13.25.29.27s.34,0,.34.22-.05.14-.14.21c-.26.2-.26.35-.26,1.14Zm4.58-8.72a.49.49,0,0,0,.5.51h4.43a1.23,1.23,0,0,1,1.17.5,2.15,2.15,0,0,1,.67,1.24,13.22,13.22,0,0,1-1.37,4.13,1.41,1.41,0,0,0-.27.7c0,.29.3.57.86,1.1a11.88,11.88,0,0,0,1.5,1.17c.12.09.25.16.25.3,0,.47-1.21,1.93-1.69,1.93-.31,0-1.8-1.51-2.09-1.82a.84.84,0,0,0-.54-.32c-.22,0-.43.23-.58.39-.36.38-1.84,1.79-2.3,1.79s-1.7-1.3-1.7-1.79c0-.18.42-.45.6-.55a10.8,10.8,0,0,0,1.8-1.48c.22-.22.49-.45.49-.77a1.3,1.3,0,0,0-.2-.58,11.28,11.28,0,0,1-1.12-3c0-.18-.07-.36-.23-.36s-.22.41-.22.55a20.53,20.53,0,0,1-.7,4.54c-.16.56-1.14,3.3-1.77,3.3-.39,0-1.87-.94-1.87-1.37a.48.48,0,0,1,.07-.2c1.57-2.59,1.71-5.47,1.71-10.14v-1c0-.61,0-1.23,0-1.84s.31-.93,1-.93,1.17,0,1.77,0h4.8c.7,0,1.39,0,2.07,0,.45,0,.49.16.49.73v1.07c0,.55,0,.73-.47.73-.7,0-1.39,0-2.09,0H255.3a.5.5,0,0,0-.5.5Zm3.94,3.21c0-.25-.11-.25-.49-.25s-.59,0-.59.3c0,.13.27,1.15.56,1.15S258.74,15.78,258.74,15.64Z"/><path class="cls-1" d="M268.76,21.08c0,.84.06,1.69.06,2.55,0,.43-.18.47-.74.47h-1c-.5,0-.7,0-.7-.45,0-.86.06-1.71.06-2.57v-.69c0-.11,0-.27-.11-.27s-.09.05-.15.18-.56,1.33-.84,1.33-1.41-1.18-1.41-1.58a.61.61,0,0,1,.15-.33,16.55,16.55,0,0,0,1.11-2.23,19.24,19.24,0,0,0,.83-2.41c0-.22-.14-.27-.34-.27-.36,0-.7,0-1.06,0s-.4-.17-.4-.76V13c0-.41,0-.61.4-.61s.75.05,1.11.05.71-.12.71-.62v-.35c0-.27,0-.45-.28-.45s-.64.11-.93.11-.49-.32-.63-.74a3.75,3.75,0,0,1-.2-1.1c0-.32.07-.37.33-.41a20.07,20.07,0,0,0,4.5-1.14,1,1,0,0,1,.25-.09c.2,0,1,1.55,1.1,1.81a1,1,0,0,1,.16.45.28.28,0,0,1-.29.25.48.48,0,0,1-.23-.07.53.53,0,0,0-.17,0,4.76,4.76,0,0,0-.59.18c-.52.16-.67.23-.67.83v.68c0,.31,0,.69.58.69.25,0,.5,0,.76,0s.34.16.37.25,0,.11.11.11.45-.83.54-1a18.8,18.8,0,0,0,1.16-3.49c.05-.2.07-.4.32-.4s1.44.37,1.71.44.83.18.83.45-.11.2-.22.25-.21.11-.34.45a12.61,12.61,0,0,0-.38,1.22c0,.26.24.27.51.27h2.91c.74,0,1.46,0,2.2,0,.45,0,.48.18.48.75v1c0,.5,0,.72-.44.72-.69,0-1.36,0-2,0h-.31c-.45,0-.64.17-.64.64v6.89c0,.43,0,.85,0,1.26,0,1.64-2.05,2-3.31,2-.83,0-1.2-.09-1.2-1.89,0-.69.1-.8.43-.8s.52,0,.86,0c.58,0,.63-.07.63-.52V13.82a.5.5,0,0,0-.5-.51h-.18c-.6,0-.56.13-1,1.14-.16.36-.31.63-.56.63a3.56,3.56,0,0,1-1-.31.82.82,0,0,0-.34-.09.4.4,0,0,0-.27.08.6.6,0,0,1-.34.09l-.62,0c-.1,0-.25,0-.25.18a10.07,10.07,0,0,0,1.62,2.25c.07.09.15.14.15.27,0,.41-.81,1.76-1.16,1.76s-.59-.68-.7-.86-.16-.22-.25-.22-.13.18-.13.34Zm4.74-5.26c.5.12.7.2.7.39s-.12.2-.23.27-.22.17-.27.45a17.44,17.44,0,0,1-1.14,3.68c-.16.34-.21.48-.47.48s-1.89-.47-1.89-.95a1.54,1.54,0,0,1,.17-.42,16.71,16.71,0,0,0,1.26-4c0-.14.07-.27.25-.27S273.27,15.75,273.5,15.82Zm5.67-.31a16.41,16.41,0,0,1,.83,2.14,14.15,14.15,0,0,1,.65,2.56c0,.34-.47.47-.9.63a4.29,4.29,0,0,1-1.16.29c-.21,0-.27-.14-.28-.33a19.65,19.65,0,0,0-1.23-4.44.77.77,0,0,1-.07-.27c0-.42,1.49-.81,1.77-.81A.41.41,0,0,1,279.17,15.51Z"/><path class="cls-1" d="M287.07,16A12.89,12.89,0,0,1,284,24.35c-.16.2-.43.51-.68.51a2.46,2.46,0,0,1-1.44-1.17.54.54,0,0,1,.18-.35,10.86,10.86,0,0,0,.16-14.51c-.13-.12-.33-.32-.33-.5,0-.36,1.07-1.19,1.41-1.19s.47.23.63.43A12.89,12.89,0,0,1,287.07,16Z"/></g></g></svg>